<?xml version="1.0" standalone="no"?>
<!DOCTYPE svg PUBLIC "-//W3C//DTD SVG 20010904//EN"
 "http://www.w3.org/TR/2001/REC-SVG-20010904/DTD/svg10.dtd">
<svg version="1.0" xmlns="http://www.w3.org/2000/svg"
 width="1280.000000pt" height="1061.000000pt" viewBox="0 0 1280.000000 1061.000000"
 preserveAspectRatio="xMidYMid meet">
<metadata>
Created by potrace 1.15, written by Peter Selinger 2001-2017
</metadata>
<g transform="translate(0.000000,1061.000000) scale(0.100000,-0.100000)"
fill="#000000" stroke="none">
<path d="M5640 10603 c-1105 -77 -2079 -739 -2564 -1743 -162 -336 -265 -715
-292 -1078 -6 -83 -9 -93 -28 -96 -12 -3 -64 -12 -116 -22 -390 -70 -762 -262
-1054 -544 -186 -180 -311 -351 -427 -584 l-68 -138 -103 -35 c-489 -164 -849
-571 -960 -1086 -31 -146 -31 -418 0 -564 135 -628 639 -1083 1274 -1152 65
-7 701 -11 1898 -11 990 0 1800 -2 1800 -5 0 -3 -119 -244 -265 -535 -146
-291 -265 -533 -265 -537 0 -5 182 -7 405 -5 323 2 405 0 404 -10 0 -7 -357
-560 -793 -1228 -436 -668 -792 -1216 -791 -1218 3 -3 4163 2943 4183 2962 10
10 -68 14 -385 19 -219 4 -523 7 -675 7 -153 0 -278 4 -278 8 0 4 113 128 250
275 l250 266 1588 4 c1712 4 1639 2 1912 57 801 162 1497 672 1904 1394 490
873 471 1958 -51 2824 -219 364 -563 713 -923 937 -282 176 -607 306 -920 368
-236 47 -292 52 -580 51 -233 0 -295 -4 -409 -22 -310 -51 -583 -137 -841
-267 l-88 -44 -68 125 c-266 495 -668 915 -1146 1200 -484 288 -1038 438
-1588 432 -80 -1 -165 -3 -190 -5z m450 -1003 c297 -37 579 -134 830 -286 349
-211 617 -503 796 -869 112 -228 137 -318 289 -1077 32 -159 62 -288 66 -288
4 0 119 107 256 238 137 130 298 284 358 341 286 272 574 426 932 501 625 130
1292 -92 1722 -573 158 -177 302 -426 374 -647 67 -204 82 -307 82 -565 0
-201 -3 -244 -23 -344 -161 -795 -799 -1382 -1597 -1471 -72 -8 -1318 -10
-4470 -8 l-4370 3 -67 32 c-91 43 -133 77 -185 147 -62 84 -87 171 -81 289 4
79 9 102 38 162 44 91 123 171 215 216 l70 34 278 -2 c277 -1 277 -1 282 20 3
12 25 122 50 244 61 303 104 415 221 573 218 296 600 467 961 430 54 -6 247
-37 428 -69 182 -32 331 -55 333 -51 1 4 -21 173 -49 376 -50 350 -53 380 -53
579 0 284 32 477 120 713 268 723 914 1243 1673 1347 119 16 407 19 521 5z"/>
</g>
</svg>
